<?xml version="1.0" encoding="utf-8"?>
<!-- Generator: Adobe Illustrator 23.0.2, SVG Export Plug-In . SVG Version: 6.00 Build 0)  -->
<svg version="1.1" xmlns="http://www.w3.org/2000/svg" xmlns:xlink="http://www.w3.org/1999/xlink" x="0px" y="0px"
	 viewBox="0 0 1038.94946 444.00003" style="enable-background:new 0 0 1038.94946 444.00003;" xml:space="preserve">
<style type="text/css">
	.st0{fill:none;stroke:#FFCD81;stroke-miterlimit:10;}
	.st1{fill:none;}
	.st2{fill-rule:evenodd;clip-rule:evenodd;fill:#231815;}
</style>
<g id="圖層_1">
</g>
<g id="圖層_2">
	<path class="st0" d="M-25.05054,185.00003"/>
	<path class="st0" d="M-67.05054,193.00003"/>
	<g>
		<g>
			<g>
				<g>
					<g>
						<g>
							<polygon class="st1" points="6.03735,235.26253 -6.05054,235.23903 -6.05054,250.23903 6.03735,250.26103 							"/>
						</g>
						<g>
							<rect x="-4.97644" y="243.78543" class="st2" width="9.9895" height="2.50099"/>
							<rect x="-4.97644" y="239.28493" class="st2" width="9.9895" height="2.5005"/>
						</g>
					</g>
				</g>
				<g>
					<g>
						<g>
							<polygon class="st1" points="18.1253,235.26253 6.03735,235.23903 6.03735,250.23903 18.1253,250.26103 							"/>
						</g>
						<g>
							<rect x="7.11145" y="243.78543" class="st2" width="9.9895" height="2.50099"/>
							<rect x="7.11145" y="239.28493" class="st2" width="9.9895" height="2.5005"/>
						</g>
					</g>
				</g>
				<g>
					<g>
						<g>
							<polygon class="st1" points="30.21319,235.26253 18.1253,235.23903 18.1253,250.23903 30.21319,250.26103 							"/>
						</g>
						<g>
							<rect x="19.19934" y="243.78543" class="st2" width="9.98953" height="2.50099"/>
							<rect x="19.19934" y="239.28493" class="st2" width="9.98953" height="2.5005"/>
						</g>
					</g>
				</g>
				<g>
					<g>
						<g>
							<polygon class="st1" points="42.30111,235.26253 30.21319,235.23903 30.21319,250.23903 42.30111,250.26103 							"/>
						</g>
						<g>
							<rect x="31.28726" y="243.78543" class="st2" width="9.98953" height="2.50099"/>
							<rect x="31.28726" y="239.28493" class="st2" width="9.98953" height="2.5005"/>
						</g>
					</g>
				</g>
				<g>
					<g>
						<g>
							<polygon class="st1" points="54.38903,235.26253 42.30111,235.23903 42.30111,250.23903 54.38903,250.26103 							"/>
						</g>
						<g>
							<rect x="43.37518" y="243.78543" class="st2" width="9.9895" height="2.50099"/>
							<rect x="43.37518" y="239.28493" class="st2" width="9.9895" height="2.5005"/>
						</g>
					</g>
				</g>
				<g>
					<g>
						<g>
							<polygon class="st1" points="66.47693,235.26253 54.38903,235.23903 54.38903,250.23903 66.47693,250.26103 							"/>
						</g>
						<g>
							<rect x="55.4631" y="243.78543" class="st2" width="9.9895" height="2.50099"/>
							<rect x="55.4631" y="239.28493" class="st2" width="9.9895" height="2.5005"/>
						</g>
					</g>
				</g>
				<g>
					<g>
						<g>
							<polygon class="st1" points="78.56485,235.26253 66.47693,235.23903 66.47693,250.23903 78.56485,250.26103 							"/>
						</g>
						<g>
							<rect x="67.55099" y="243.78543" class="st2" width="9.98953" height="2.50099"/>
							<rect x="67.55099" y="239.28493" class="st2" width="9.98953" height="2.5005"/>
						</g>
					</g>
				</g>
				<g>
					<g>
						<g>
							<polygon class="st1" points="90.65277,235.26253 78.56485,235.23903 78.56485,250.23903 90.65277,250.26103 							"/>
						</g>
						<g>
							<rect x="79.63892" y="243.78543" class="st2" width="9.98953" height="2.50099"/>
							<rect x="79.63892" y="239.28493" class="st2" width="9.98953" height="2.5005"/>
						</g>
					</g>
				</g>
				<g>
					<g>
						<g>
							<polygon class="st1" points="102.74066,235.26253 90.65277,235.23903 90.65277,250.23903 102.74066,250.26103 							"/>
						</g>
						<g>
							<rect x="91.72684" y="243.78543" class="st2" width="9.9895" height="2.50099"/>
							<rect x="91.72684" y="239.28493" class="st2" width="9.9895" height="2.5005"/>
						</g>
					</g>
				</g>
				<g>
					<g>
						<g>
							<polygon class="st1" points="114.82858,235.26253 102.74066,235.23903 102.74066,250.23903 114.82858,250.26103 							"/>
						</g>
						<g>
							<rect x="103.81476" y="243.78543" class="st2" width="9.9895" height="2.50099"/>
							<rect x="103.81476" y="239.28493" class="st2" width="9.9895" height="2.5005"/>
						</g>
					</g>
				</g>
				<g>
					<g>
						<g>
							<polygon class="st1" points="126.9165,235.26253 114.82858,235.23903 114.82858,250.23903 126.9165,250.26103 							"/>
						</g>
						<g>
							<rect x="115.90265" y="243.78543" class="st2" width="9.98953" height="2.50099"/>
							<rect x="115.90265" y="239.28493" class="st2" width="9.98953" height="2.5005"/>
						</g>
					</g>
				</g>
				<g>
					<g>
						<g>
							<polygon class="st1" points="139.00439,235.26253 126.9165,235.23903 126.9165,250.23903 139.00439,250.26103 							"/>
						</g>
						<g>
							<rect x="127.99057" y="243.78543" class="st2" width="9.9895" height="2.50099"/>
							<rect x="127.99057" y="239.28493" class="st2" width="9.9895" height="2.5005"/>
						</g>
					</g>
				</g>
				<g>
					<g>
						<g>
							<polygon class="st1" points="151.09232,235.26253 139.00439,235.23903 139.00439,250.23903 151.09232,250.26103 							"/>
						</g>
						<g>
							<rect x="140.07849" y="243.78543" class="st2" width="9.9895" height="2.50099"/>
							<rect x="140.07849" y="239.28493" class="st2" width="9.9895" height="2.5005"/>
						</g>
					</g>
				</g>
				<g>
					<g>
						<g>
							<polygon class="st1" points="163.18024,235.26253 151.09232,235.23903 151.09232,250.23903 163.18024,250.26103 							"/>
						</g>
						<g>
							<rect x="152.16638" y="243.78543" class="st2" width="9.98953" height="2.50099"/>
							<rect x="152.16638" y="239.28493" class="st2" width="9.98953" height="2.5005"/>
						</g>
					</g>
				</g>
				<g>
					<g>
						<g>
							<polygon class="st1" points="175.26816,235.26253 163.18024,235.23903 163.18024,250.23903 175.26816,250.26103 							"/>
						</g>
						<g>
							<rect x="164.2543" y="243.78543" class="st2" width="9.9895" height="2.50099"/>
							<rect x="164.2543" y="239.28493" class="st2" width="9.9895" height="2.5005"/>
						</g>
					</g>
				</g>
				<g>
					<g>
						<g>
							<polygon class="st1" points="187.35605,235.26253 175.26816,235.23903 175.26816,250.23903 187.35605,250.26103 							"/>
						</g>
						<g>
							<rect x="176.34222" y="243.78543" class="st2" width="9.9895" height="2.50099"/>
							<rect x="176.34222" y="239.28493" class="st2" width="9.9895" height="2.5005"/>
						</g>
					</g>
				</g>
				<g>
					<g>
						<g>
							<polygon class="st1" points="199.44397,235.26253 187.35605,235.23903 187.35605,250.23903 199.44397,250.26103 							"/>
						</g>
						<g>
							<rect x="188.43011" y="243.78543" class="st2" width="9.98953" height="2.50099"/>
							<rect x="188.43011" y="239.28493" class="st2" width="9.98953" height="2.5005"/>
						</g>
					</g>
				</g>
				<g>
					<g>
						<g>
							<polygon class="st1" points="211.53189,235.26253 199.44397,235.23903 199.44397,250.23903 211.53189,250.26103 							"/>
						</g>
						<g>
							<rect x="200.51804" y="243.78543" class="st2" width="9.98953" height="2.50099"/>
							<rect x="200.51804" y="239.28493" class="st2" width="9.98953" height="2.5005"/>
						</g>
					</g>
				</g>
				<g>
					<g>
						<g>
							<polygon class="st1" points="223.61978,235.26253 211.53189,235.23903 211.53189,250.23903 223.61978,250.26103 							"/>
						</g>
						<g>
							<rect x="212.60596" y="243.78543" class="st2" width="9.9895" height="2.50099"/>
							<rect x="212.60596" y="239.28493" class="st2" width="9.9895" height="2.5005"/>
						</g>
					</g>
				</g>
				<g>
					<g>
						<g>
							<polygon class="st1" points="235.7077,235.26253 223.61978,235.23903 223.61978,250.23903 235.7077,250.26103 							"/>
						</g>
						<g>
							<rect x="224.69388" y="243.78543" class="st2" width="9.9895" height="2.50099"/>
							<rect x="224.69388" y="239.28493" class="st2" width="9.9895" height="2.5005"/>
						</g>
					</g>
				</g>
				<g>
					<g>
						<g>
							<polygon class="st1" points="247.79562,235.26253 235.7077,235.23903 235.7077,250.23903 247.79562,250.26103 							"/>
						</g>
						<g>
							<rect x="236.78177" y="243.78543" class="st2" width="9.98953" height="2.50099"/>
							<rect x="236.78177" y="239.28493" class="st2" width="9.98953" height="2.5005"/>
						</g>
					</g>
				</g>
				<g>
					<g>
						<g>
							<polygon class="st1" points="259.88351,235.26253 247.79562,235.23903 247.79562,250.23903 259.88351,250.26103 							"/>
						</g>
						<g>
							<rect x="248.86969" y="243.78543" class="st2" width="9.9895" height="2.50099"/>
							<rect x="248.86969" y="239.28493" class="st2" width="9.9895" height="2.5005"/>
						</g>
					</g>
				</g>
				<g>
					<g>
						<g>
							<polygon class="st1" points="271.97144,235.26253 259.88351,235.23903 259.88351,250.23903 271.97144,250.26103 							"/>
						</g>
						<g>
							<rect x="260.95761" y="243.78543" class="st2" width="9.9895" height="2.50099"/>
							<rect x="260.95761" y="239.28493" class="st2" width="9.9895" height="2.5005"/>
						</g>
					</g>
				</g>
				<g>
					<g>
						<g>
							<polygon class="st1" points="284.05936,235.26253 271.97144,235.23903 271.97144,250.23903 284.05936,250.26103 							"/>
						</g>
						<g>
							<rect x="273.0455" y="243.78543" class="st2" width="9.98953" height="2.50099"/>
							<rect x="273.0455" y="239.28493" class="st2" width="9.98953" height="2.5005"/>
						</g>
					</g>
				</g>
				<g>
					<g>
						<g>
							<polygon class="st1" points="296.14725,235.26253 284.05936,235.23903 284.05936,250.23903 296.14725,250.26103 							"/>
						</g>
						<g>
							<rect x="285.13342" y="243.78543" class="st2" width="9.98952" height="2.50099"/>
							<rect x="285.13342" y="239.28493" class="st2" width="9.98952" height="2.5005"/>
						</g>
					</g>
				</g>
				<g>
					<g>
						<g>
							<polygon class="st1" points="308.23517,235.26253 296.14725,235.23903 296.14725,250.23903 308.23517,250.26103 							"/>
						</g>
						<g>
							<rect x="297.22134" y="243.78543" class="st2" width="9.9895" height="2.50099"/>
							<rect x="297.22134" y="239.28493" class="st2" width="9.9895" height="2.5005"/>
						</g>
					</g>
				</g>
				<g>
					<g>
						<g>
							<polygon class="st1" points="320.32309,235.26253 308.23517,235.23903 308.23517,250.23903 320.32309,250.26103 							"/>
						</g>
						<g>
							<rect x="309.30923" y="243.78543" class="st2" width="9.98952" height="2.50099"/>
							<rect x="309.30923" y="239.28493" class="st2" width="9.98952" height="2.5005"/>
						</g>
					</g>
				</g>
				<g>
					<g>
						<g>
							<polygon class="st1" points="332.41098,235.26253 320.32309,235.23903 320.32309,250.23903 332.41098,250.26103 							"/>
						</g>
						<g>
							<rect x="321.39716" y="243.78543" class="st2" width="9.98952" height="2.50099"/>
							<rect x="321.39716" y="239.28493" class="st2" width="9.98952" height="2.5005"/>
						</g>
					</g>
				</g>
				<g>
					<g>
						<g>
							<polygon class="st1" points="344.4989,235.26253 332.41098,235.23903 332.41098,250.23903 344.4989,250.26103 							"/>
						</g>
						<g>
							<rect x="333.48508" y="243.78543" class="st2" width="9.98952" height="2.50099"/>
							<rect x="333.48508" y="239.28493" class="st2" width="9.98952" height="2.5005"/>
						</g>
					</g>
				</g>
				<g>
					<g>
						<g>
							<polygon class="st1" points="356.58682,235.26253 344.4989,235.23903 344.4989,250.23903 356.58682,250.26103 							"/>
						</g>
						<g>
							<rect x="345.57297" y="243.78543" class="st2" width="9.98952" height="2.50099"/>
							<rect x="345.57297" y="239.28493" class="st2" width="9.98952" height="2.5005"/>
						</g>
					</g>
				</g>
				<g>
					<g>
						<g>
							<polygon class="st1" points="368.67474,235.26253 356.58682,235.23903 356.58682,250.23903 368.67474,250.26103 							"/>
						</g>
						<g>
							<rect x="357.66089" y="243.78543" class="st2" width="9.9895" height="2.50099"/>
							<rect x="357.66089" y="239.28493" class="st2" width="9.9895" height="2.5005"/>
						</g>
					</g>
				</g>
				<g>
					<g>
						<g>
							<polygon class="st1" points="380.76263,235.26253 368.67474,235.23903 368.67474,250.23903 380.76263,250.26103 							"/>
						</g>
						<g>
							<rect x="369.74881" y="243.78543" class="st2" width="9.98952" height="2.50099"/>
							<rect x="369.74881" y="239.28493" class="st2" width="9.98952" height="2.5005"/>
						</g>
					</g>
				</g>
				<g>
					<g>
						<g>
							<polygon class="st1" points="392.85056,235.26253 380.76263,235.23903 380.76263,250.23903 392.85056,250.26103 							"/>
						</g>
						<g>
							<rect x="381.8367" y="243.78543" class="st2" width="9.98952" height="2.50099"/>
							<rect x="381.8367" y="239.28493" class="st2" width="9.98952" height="2.5005"/>
						</g>
					</g>
				</g>
				<g>
					<g>
						<g>
							<polygon class="st1" points="404.93848,235.26253 392.85056,235.23903 392.85056,250.23903 404.93848,250.26103 							"/>
						</g>
						<g>
							<rect x="393.92462" y="243.78543" class="st2" width="9.98952" height="2.50099"/>
							<rect x="393.92462" y="239.28493" class="st2" width="9.98952" height="2.5005"/>
						</g>
					</g>
				</g>
				<g>
					<g>
						<g>
							<polygon class="st1" points="417.02637,235.26253 404.93848,235.23903 404.93848,250.23903 417.02637,250.26103 							"/>
						</g>
						<g>
							<rect x="406.01254" y="243.78543" class="st2" width="9.98952" height="2.50099"/>
							<rect x="406.01254" y="239.28493" class="st2" width="9.98952" height="2.5005"/>
						</g>
					</g>
				</g>
				<g>
					<g>
						<g>
							<polygon class="st1" points="429.11429,235.26253 417.02637,235.23903 417.02637,250.23903 429.11429,250.26103 							"/>
						</g>
						<g>
							<rect x="418.10046" y="243.78543" class="st2" width="9.98952" height="2.50099"/>
							<rect x="418.10046" y="239.28493" class="st2" width="9.98952" height="2.5005"/>
						</g>
					</g>
				</g>
				<g>
					<g>
						<g>
							<polygon class="st1" points="441.20221,235.26253 429.11429,235.23903 429.11429,250.23903 441.20221,250.26103 							"/>
						</g>
						<g>
							<rect x="430.18835" y="243.78543" class="st2" width="9.98952" height="2.50099"/>
							<rect x="430.18835" y="239.28493" class="st2" width="9.98952" height="2.5005"/>
						</g>
					</g>
				</g>
				<g>
					<g>
						<g>
							<polygon class="st1" points="453.29013,235.26253 441.20221,235.23903 441.20221,250.23903 453.29013,250.26103 							"/>
						</g>
						<g>
							<rect x="442.27628" y="243.78543" class="st2" width="9.98952" height="2.50099"/>
							<rect x="442.27628" y="239.28493" class="st2" width="9.98952" height="2.5005"/>
						</g>
					</g>
				</g>
				<g>
					<g>
						<g>
							<polygon class="st1" points="465.37802,235.26253 453.29013,235.23903 453.29013,250.23903 465.37802,250.26103 							"/>
						</g>
						<g>
							<rect x="454.3642" y="243.78543" class="st2" width="9.98951" height="2.50099"/>
							<rect x="454.3642" y="239.28493" class="st2" width="9.98951" height="2.5005"/>
						</g>
					</g>
				</g>
				<g>
					<g>
						<g>
							<polygon class="st1" points="477.46594,235.26253 465.37802,235.23903 465.37802,250.23903 477.46594,250.26103 							"/>
						</g>
						<g>
							<rect x="466.45212" y="243.78543" class="st2" width="9.98951" height="2.50099"/>
							<rect x="466.45212" y="239.28493" class="st2" width="9.98951" height="2.5005"/>
						</g>
					</g>
				</g>
				<g>
					<g>
						<g>
							<polygon class="st1" points="489.55386,235.26253 477.46594,235.23903 477.46594,250.23903 489.55386,250.26103 							"/>
						</g>
						<g>
							<rect x="478.54001" y="243.78543" class="st2" width="9.98951" height="2.50099"/>
							<rect x="478.54001" y="239.28493" class="st2" width="9.98951" height="2.5005"/>
						</g>
					</g>
				</g>
				<g>
					<g>
						<g>
							<polygon class="st1" points="501.64175,235.26253 489.55386,235.23903 489.55386,250.23903 501.64175,250.26103 							"/>
						</g>
						<g>
							<rect x="490.62793" y="243.78543" class="st2" width="9.98952" height="2.50099"/>
							<rect x="490.62793" y="239.28493" class="st2" width="9.98952" height="2.5005"/>
						</g>
					</g>
				</g>
				<g>
					<g>
						<g>
							<polygon class="st1" points="513.72968,235.26253 501.64175,235.23903 501.64175,250.23903 513.72968,250.26103 							"/>
						</g>
						<g>
							<rect x="502.71585" y="243.78543" class="st2" width="9.98952" height="2.50099"/>
							<rect x="502.71585" y="239.28493" class="st2" width="9.98952" height="2.5005"/>
						</g>
					</g>
				</g>
				<g>
					<g>
						<g>
							<polygon class="st1" points="525.81757,235.26253 513.72968,235.23903 513.72968,250.23903 525.81757,250.26103 							"/>
						</g>
						<g>
							<rect x="514.80377" y="243.78543" class="st2" width="9.98952" height="2.50099"/>
							<rect x="514.80377" y="239.28493" class="st2" width="9.98952" height="2.5005"/>
						</g>
					</g>
				</g>
				<g>
					<g>
						<g>
							<polygon class="st1" points="537.90552,235.26253 525.81757,235.23903 525.81757,250.23903 537.90552,250.26103 							"/>
						</g>
						<g>
							<rect x="526.89166" y="243.78543" class="st2" width="9.98951" height="2.50099"/>
							<rect x="526.89166" y="239.28493" class="st2" width="9.98951" height="2.5005"/>
						</g>
					</g>
				</g>
				<g>
					<g>
						<g>
							<polygon class="st1" points="549.99341,235.26253 537.90552,235.23903 537.90552,250.23903 549.99341,250.26103 							"/>
						</g>
						<g>
							<rect x="538.97955" y="243.78543" class="st2" width="9.98952" height="2.50099"/>
							<rect x="538.97955" y="239.28493" class="st2" width="9.98952" height="2.5005"/>
						</g>
					</g>
				</g>
				<g>
					<g>
						<g>
							<polygon class="st1" points="562.0813,235.26253 549.99341,235.23903 549.99341,250.23903 562.0813,250.26103 							"/>
						</g>
						<g>
							<rect x="551.0675" y="243.78543" class="st2" width="9.98952" height="2.50099"/>
							<rect x="551.0675" y="239.28493" class="st2" width="9.98952" height="2.5005"/>
						</g>
					</g>
				</g>
				<g>
					<g>
						<g>
							<polygon class="st1" points="574.16925,235.26253 562.0813,235.23903 562.0813,250.23903 574.16925,250.26103 							"/>
						</g>
						<g>
							<rect x="563.1554" y="243.78543" class="st2" width="9.98951" height="2.50099"/>
							<rect x="563.1554" y="239.28493" class="st2" width="9.98951" height="2.5005"/>
						</g>
					</g>
				</g>
				<g>
					<g>
						<g>
							<polygon class="st1" points="586.25714,235.26253 574.16925,235.23903 574.16925,250.23903 586.25714,250.26103 							"/>
						</g>
						<g>
							<rect x="575.24329" y="243.78543" class="st2" width="9.98951" height="2.50099"/>
							<rect x="575.24329" y="239.28493" class="st2" width="9.98951" height="2.5005"/>
						</g>
					</g>
				</g>
				<g>
					<g>
						<g>
							<polygon class="st1" points="598.34509,235.26253 586.25714,235.23903 586.25714,250.23903 598.34509,250.26103 							"/>
						</g>
						<g>
							<rect x="587.33124" y="243.78543" class="st2" width="9.98952" height="2.50099"/>
							<rect x="587.33124" y="239.28493" class="st2" width="9.98952" height="2.5005"/>
						</g>
					</g>
				</g>
				<g>
					<g>
						<g>
							<polygon class="st1" points="610.43298,235.26253 598.34509,235.23903 598.34509,250.23903 610.43298,250.26103 							"/>
						</g>
						<g>
							<rect x="599.41913" y="243.78543" class="st2" width="9.98951" height="2.50099"/>
							<rect x="599.41913" y="239.28493" class="st2" width="9.98951" height="2.5005"/>
						</g>
					</g>
				</g>
				<g>
					<g>
						<g>
							<polygon class="st1" points="622.52087,235.26253 610.43298,235.23903 610.43298,250.23903 622.52087,250.26103 							"/>
						</g>
						<g>
							<rect x="611.50702" y="243.78543" class="st2" width="9.98952" height="2.50099"/>
							<rect x="611.50702" y="239.28493" class="st2" width="9.98952" height="2.5005"/>
						</g>
					</g>
				</g>
				<g>
					<g>
						<g>
							<polygon class="st1" points="634.60883,235.26253 622.52087,235.23903 622.52087,250.23903 634.60883,250.26103 							"/>
						</g>
						<g>
							<rect x="623.59497" y="243.78543" class="st2" width="9.98952" height="2.50099"/>
							<rect x="623.59497" y="239.28493" class="st2" width="9.98952" height="2.5005"/>
						</g>
					</g>
				</g>
				<g>
					<g>
						<g>
							<polygon class="st1" points="646.69672,235.26253 634.60883,235.23903 634.60883,250.23903 646.69672,250.26103 							"/>
						</g>
						<g>
							<rect x="635.68286" y="243.78543" class="st2" width="9.98952" height="2.50099"/>
							<rect x="635.68286" y="239.28493" class="st2" width="9.98952" height="2.5005"/>
						</g>
					</g>
				</g>
				<g>
					<g>
						<g>
							<polygon class="st1" points="658.78461,235.26253 646.69672,235.23903 646.69672,250.23903 658.78461,250.26103 							"/>
						</g>
						<g>
							<rect x="647.77081" y="243.78543" class="st2" width="9.98951" height="2.50099"/>
							<rect x="647.77081" y="239.28493" class="st2" width="9.98951" height="2.5005"/>
						</g>
					</g>
				</g>
				<g>
					<g>
						<g>
							<polygon class="st1" points="670.87256,235.26253 658.78461,235.23903 658.78461,250.23903 670.87256,250.26103 							"/>
						</g>
						<g>
							<rect x="659.8587" y="243.78543" class="st2" width="9.98952" height="2.50099"/>
							<rect x="659.8587" y="239.28493" class="st2" width="9.98952" height="2.5005"/>
						</g>
					</g>
				</g>
				<g>
					<g>
						<g>
							<polygon class="st1" points="682.96045,235.26253 670.87256,235.23903 670.87256,250.23903 682.96045,250.26103 							"/>
						</g>
						<g>
							<rect x="671.94659" y="243.78543" class="st2" width="9.98952" height="2.50099"/>
							<rect x="671.94659" y="239.28493" class="st2" width="9.98952" height="2.5005"/>
						</g>
					</g>
				</g>
				<g>
					<g>
						<g>
							<polygon class="st1" points="695.04834,235.26253 682.96045,235.23903 682.96045,250.23903 695.04834,250.26103 							"/>
						</g>
						<g>
							<rect x="684.03455" y="243.78543" class="st2" width="9.9895" height="2.50099"/>
							<rect x="684.03455" y="239.28493" class="st2" width="9.9895" height="2.5005"/>
						</g>
					</g>
				</g>
				<g>
					<g>
						<g>
							<polygon class="st1" points="707.13629,235.26253 695.04834,235.23903 695.04834,250.23903 707.13629,250.26103 							"/>
						</g>
						<g>
							<rect x="696.12244" y="243.78543" class="st2" width="9.98952" height="2.50099"/>
							<rect x="696.12244" y="239.28493" class="st2" width="9.98952" height="2.5005"/>
						</g>
					</g>
				</g>
				<g>
					<g>
						<g>
							<polygon class="st1" points="719.22418,235.26253 707.13629,235.23903 707.13629,250.23903 719.22418,250.26103 							"/>
						</g>
						<g>
							<rect x="708.21033" y="243.78543" class="st2" width="9.98952" height="2.50099"/>
							<rect x="708.21033" y="239.28493" class="st2" width="9.98952" height="2.5005"/>
						</g>
					</g>
				</g>
				<g>
					<g>
						<g>
							<polygon class="st1" points="731.31207,235.26253 719.22418,235.23903 719.22418,250.23903 731.31207,250.26103 							"/>
						</g>
						<g>
							<rect x="720.29828" y="243.78543" class="st2" width="9.98952" height="2.50099"/>
							<rect x="720.29828" y="239.28493" class="st2" width="9.98952" height="2.5005"/>
						</g>
					</g>
				</g>
				<g>
					<g>
						<g>
							<polygon class="st1" points="743.40002,235.26253 731.31207,235.23903 731.31207,250.23903 743.40002,250.26103 							"/>
						</g>
						<g>
							<rect x="732.38617" y="243.78543" class="st2" width="9.98952" height="2.50099"/>
							<rect x="732.38617" y="239.28493" class="st2" width="9.98952" height="2.5005"/>
						</g>
					</g>
				</g>
				<g>
					<g>
						<g>
							<polygon class="st1" points="755.48792,235.26253 743.40002,235.23903 743.40002,250.23903 755.48792,250.26103 							"/>
						</g>
						<g>
							<rect x="744.47406" y="243.78543" class="st2" width="9.9895" height="2.50099"/>
							<rect x="744.47406" y="239.28493" class="st2" width="9.9895" height="2.5005"/>
						</g>
					</g>
				</g>
				<g>
					<g>
						<g>
							<polygon class="st1" points="767.57581,235.26253 755.48792,235.23903 755.48792,250.23903 767.57581,250.26103 							"/>
						</g>
						<g>
							<rect x="756.56201" y="243.78543" class="st2" width="9.98952" height="2.50099"/>
							<rect x="756.56201" y="239.28493" class="st2" width="9.98952" height="2.5005"/>
						</g>
					</g>
				</g>
				<g>
					<g>
						<g>
							<polygon class="st1" points="779.66376,235.26253 767.57581,235.23903 767.57581,250.23903 779.66376,250.26103 							"/>
						</g>
						<g>
							<rect x="768.6499" y="243.78543" class="st2" width="9.98952" height="2.50099"/>
							<rect x="768.6499" y="239.28493" class="st2" width="9.98952" height="2.5005"/>
						</g>
					</g>
				</g>
				<g>
					<g>
						<g>
							<polygon class="st1" points="791.75165,235.26253 779.66376,235.23903 779.66376,250.23903 791.75165,250.26103 							"/>
						</g>
						<g>
							<rect x="780.73779" y="243.78543" class="st2" width="9.98952" height="2.50099"/>
							<rect x="780.73779" y="239.28493" class="st2" width="9.98952" height="2.5005"/>
						</g>
					</g>
				</g>
				<g>
					<g>
						<g>
							<polygon class="st1" points="803.83954,235.26253 791.75165,235.23903 791.75165,250.23903 803.83954,250.26103 							"/>
						</g>
						<g>
							<rect x="792.82574" y="243.78543" class="st2" width="9.9895" height="2.50099"/>
							<rect x="792.82574" y="239.28493" class="st2" width="9.9895" height="2.5005"/>
						</g>
					</g>
				</g>
				<g>
					<g>
						<g>
							<polygon class="st1" points="815.92749,235.26253 803.83954,235.23903 803.83954,250.23903 815.92749,250.26103 							"/>
						</g>
						<g>
							<rect x="804.91364" y="243.78543" class="st2" width="9.98953" height="2.50099"/>
							<rect x="804.91364" y="239.28493" class="st2" width="9.98953" height="2.5005"/>
						</g>
					</g>
				</g>
				<g>
					<g>
						<g>
							<polygon class="st1" points="828.01538,235.26253 815.92749,235.23903 815.92749,250.23903 828.01538,250.26103 							"/>
						</g>
						<g>
							<rect x="817.00153" y="243.78543" class="st2" width="9.9895" height="2.50099"/>
							<rect x="817.00153" y="239.28493" class="st2" width="9.9895" height="2.5005"/>
						</g>
					</g>
				</g>
				<g>
					<g>
						<g>
							<polygon class="st1" points="840.10327,235.26253 828.01538,235.23903 828.01538,250.23903 840.10327,250.26103 							"/>
						</g>
						<g>
							<rect x="829.08948" y="243.78543" class="st2" width="9.9895" height="2.50099"/>
							<rect x="829.08948" y="239.28493" class="st2" width="9.9895" height="2.5005"/>
						</g>
					</g>
				</g>
				<g>
					<g>
						<g>
							<polygon class="st1" points="852.19122,235.26253 840.10327,235.23903 840.10327,250.23903 852.19122,250.26103 							"/>
						</g>
						<g>
							<rect x="841.17737" y="243.78543" class="st2" width="9.98953" height="2.50099"/>
							<rect x="841.17737" y="239.28493" class="st2" width="9.98953" height="2.5005"/>
						</g>
					</g>
				</g>
				<g>
					<g>
						<g>
							<polygon class="st1" points="864.27911,235.26253 852.19122,235.23903 852.19122,250.23903 864.27911,250.26103 							"/>
						</g>
						<g>
							<rect x="853.26526" y="243.78543" class="st2" width="9.98953" height="2.50099"/>
							<rect x="853.26526" y="239.28493" class="st2" width="9.98953" height="2.5005"/>
						</g>
					</g>
				</g>
				<g>
					<g>
						<g>
							<polygon class="st1" points="876.367,235.26253 864.27911,235.23903 864.27911,250.23903 876.367,250.26103 							"/>
						</g>
						<g>
							<rect x="865.35321" y="243.78543" class="st2" width="9.9895" height="2.50099"/>
							<rect x="865.35321" y="239.28493" class="st2" width="9.9895" height="2.5005"/>
						</g>
					</g>
				</g>
				<g>
					<g>
						<g>
							<polygon class="st1" points="888.45496,235.26253 876.367,235.23903 876.367,250.23903 888.45496,250.26103 							"/>
						</g>
						<g>
							<rect x="877.4411" y="243.78543" class="st2" width="9.9895" height="2.50099"/>
							<rect x="877.4411" y="239.28493" class="st2" width="9.9895" height="2.5005"/>
						</g>
					</g>
				</g>
				<g>
					<g>
						<g>
							<polygon class="st1" points="900.54285,235.26253 888.45496,235.23903 888.45496,250.23903 900.54285,250.26103 							"/>
						</g>
						<g>
							<rect x="889.52899" y="243.78543" class="st2" width="9.98953" height="2.50099"/>
							<rect x="889.52899" y="239.28493" class="st2" width="9.98953" height="2.5005"/>
						</g>
					</g>
				</g>
				<g>
					<g>
						<g>
							<polygon class="st1" points="912.63074,235.26253 900.54285,235.23903 900.54285,250.23903 912.63074,250.26103 							"/>
						</g>
						<g>
							<rect x="901.61694" y="243.78543" class="st2" width="9.9895" height="2.50099"/>
							<rect x="901.61694" y="239.28493" class="st2" width="9.9895" height="2.5005"/>
						</g>
					</g>
				</g>
				<g>
					<g>
						<g>
							<polygon class="st1" points="924.71869,235.26253 912.63074,235.23903 912.63074,250.23903 924.71869,250.26103 							"/>
						</g>
						<g>
							<rect x="913.70483" y="243.78543" class="st2" width="9.9895" height="2.50099"/>
							<rect x="913.70483" y="239.28493" class="st2" width="9.9895" height="2.5005"/>
						</g>
					</g>
				</g>
				<g>
					<g>
						<g>
							<polygon class="st1" points="936.80658,235.26253 924.71869,235.23903 924.71869,250.23903 936.80658,250.26103 							"/>
						</g>
						<g>
							<rect x="925.79272" y="243.78543" class="st2" width="9.98953" height="2.50099"/>
							<rect x="925.79272" y="239.28493" class="st2" width="9.98953" height="2.5005"/>
						</g>
					</g>
				</g>
				<g>
					<g>
						<g>
							<polygon class="st1" points="948.89453,235.26253 936.80658,235.23903 936.80658,250.23903 948.89453,250.26103 							"/>
						</g>
						<g>
							<rect x="937.88068" y="243.78543" class="st2" width="9.9895" height="2.50099"/>
							<rect x="937.88068" y="239.28493" class="st2" width="9.9895" height="2.5005"/>
						</g>
					</g>
				</g>
				<g>
					<g>
						<g>
							<polygon class="st1" points="960.98242,235.26253 948.89453,235.23903 948.89453,250.23903 960.98242,250.26103 							"/>
						</g>
						<g>
							<rect x="949.96857" y="243.78543" class="st2" width="9.9895" height="2.50099"/>
							<rect x="949.96857" y="239.28493" class="st2" width="9.9895" height="2.5005"/>
						</g>
					</g>
				</g>
				<g>
					<g>
						<g>
							<polygon class="st1" points="973.07031,235.26253 960.98242,235.23903 960.98242,250.23903 973.07031,250.26103 							"/>
						</g>
						<g>
							<rect x="962.05646" y="243.78543" class="st2" width="9.98953" height="2.50099"/>
							<rect x="962.05646" y="239.28493" class="st2" width="9.98953" height="2.5005"/>
						</g>
					</g>
				</g>
				<g>
					<g>
						<g>
							<polygon class="st1" points="985.15826,235.26253 973.07031,235.23903 973.07031,250.23903 985.15826,250.26103 							"/>
						</g>
						<g>
							<rect x="974.14441" y="243.78543" class="st2" width="9.98953" height="2.50099"/>
							<rect x="974.14441" y="239.28493" class="st2" width="9.98953" height="2.5005"/>
						</g>
					</g>
				</g>
				<g>
					<g>
						<g>
							<polygon class="st1" points="997.24615,235.26253 985.15826,235.23903 985.15826,250.23903 997.24615,250.26103 							"/>
						</g>
						<g>
							<rect x="986.2323" y="243.78543" class="st2" width="9.9895" height="2.50099"/>
							<rect x="986.2323" y="239.28493" class="st2" width="9.9895" height="2.5005"/>
						</g>
					</g>
				</g>
				<g>
					<g>
						<g>
							<polygon class="st1" points="1009.33405,235.26253 997.24615,235.23903 997.24615,250.23903 1009.33405,250.26103 							"/>
						</g>
						<g>
							<rect x="998.32025" y="243.78543" class="st2" width="9.9895" height="2.50099"/>
							<rect x="998.32025" y="239.28493" class="st2" width="9.9895" height="2.5005"/>
						</g>
					</g>
				</g>
				<g>
					<g>
						<g>
							<polygon class="st1" points="1021.422,235.26253 1009.33405,235.23903 1009.33405,250.23903 1021.422,250.26103 							"/>
						</g>
						<g>
							<rect x="1010.40814" y="243.78543" class="st2" width="9.98953" height="2.50099"/>
							<rect x="1010.40814" y="239.28493" class="st2" width="9.98953" height="2.5005"/>
						</g>
					</g>
				</g>
				<g>
					<g>
						<g>
							<polygon class="st1" points="1033.50989,235.26253 1021.422,235.23903 1021.422,250.23903 1033.50989,250.26103 							"/>
						</g>
						<g>
							<rect x="1022.49603" y="243.78543" class="st2" width="9.9895" height="2.50099"/>
							<rect x="1022.49603" y="239.28493" class="st2" width="9.9895" height="2.5005"/>
						</g>
					</g>
				</g>
				<g>
					<g>
						<g>
							<polygon class="st1" points="1045.59778,235.26253 1033.50989,235.23903 1033.50989,250.23903 1045.59778,250.26103 							
								"/>
						</g>
						<g>
							<rect x="1034.58398" y="243.78543" class="st2" width="9.9895" height="2.50099"/>
							<rect x="1034.58398" y="239.28493" class="st2" width="9.9895" height="2.5005"/>
						</g>
					</g>
				</g>
				<g>
					<g>
						<g>
							<polygon class="st1" points="1057.68567,235.26253 1045.59778,235.23903 1045.59778,250.23903 1057.68567,250.26103 							
								"/>
						</g>
						<g>
							<rect x="1046.67188" y="243.78543" class="st2" width="9.9895" height="2.50099"/>
							<rect x="1046.67188" y="239.28493" class="st2" width="9.9895" height="2.5005"/>
						</g>
					</g>
				</g>
				<g>
					<g>
						<g>
							<polygon class="st1" points="1069.77356,235.26253 1057.68567,235.23903 1057.68567,250.23903 1069.77356,250.26103 							
								"/>
						</g>
						<g>
							<rect x="1058.75977" y="243.78543" class="st2" width="9.9895" height="2.50099"/>
							<rect x="1058.75977" y="239.28493" class="st2" width="9.9895" height="2.5005"/>
						</g>
					</g>
				</g>
				<g>
					<g>
						<g>
							<polygon class="st1" points="1081.86157,235.26253 1069.77356,235.23903 1069.77356,250.23903 1081.86157,250.26103 							
								"/>
						</g>
						<g>
							<rect x="1070.84766" y="243.78543" class="st2" width="9.9895" height="2.50099"/>
							<rect x="1070.84766" y="239.28493" class="st2" width="9.9895" height="2.5005"/>
						</g>
					</g>
				</g>
				<g>
					<g>
						<g>
							<polygon class="st1" points="1093.94946,235.26253 1081.86157,235.23903 1081.86157,250.23903 1093.94946,250.26103 							
								"/>
						</g>
						<g>
							<rect x="1082.93555" y="243.78543" class="st2" width="9.9895" height="2.50099"/>
							<rect x="1082.93555" y="239.28493" class="st2" width="9.9895" height="2.5005"/>
						</g>
					</g>
				</g>
			</g>
		</g>
	</g>
</g>
</svg>
