<?xml version="1.0" encoding="utf-8"?>
<!-- Generator: Adobe Illustrator 23.0.2, SVG Export Plug-In . SVG Version: 6.00 Build 0)  -->
<svg version="1.1" id="圖層_1" xmlns="http://www.w3.org/2000/svg" xmlns:xlink="http://www.w3.org/1999/xlink" x="0px" y="0px"
	 viewBox="0 0 232 163" style="enable-background:new 0 0 232 163;" xml:space="preserve">
<style type="text/css">
	.st0{clip-path:url(#SVGID_2_);}
	.st1{fill:none;stroke:#FFA543;stroke-miterlimit:10;}
	.st2{enable-background:new    ;}
	.st3{fill:#FFFFFF;}
</style>
<g>
	<g>
		<defs>
			<rect id="SVGID_1_" x="11.89892" y="5.48714" width="156.10107" height="152.55333"/>
		</defs>
		<clipPath id="SVGID_2_">
			<use xlink:href="#SVGID_1_"  style="overflow:visible;"/>
		</clipPath>
		<g class="st0">
			<path class="st1" d="M25.54307,71.60752c3.48286-18.02531,5.26596-37.61759,20.45653-49.08416
				c16.06355-12.12545,39.23696-17.79432,59.07329-10.94819c18.27411,6.30739,21.72123,27.68861,32.79292,42.65486
				c10.80347,14.60338,31.29115,25.22142,30.32414,42.6624c-1.00624,18.16505-18.97272,30.31369-34.9353,40.54431
				c-15.97411,10.23787-33.94297,18.27843-53.52843,16.15462c-20.98364-2.27477-42.54698-10.92816-53.68398-27.77988
				C15.33249,109.60628,21.98777,90.00798,25.54307,71.60752z"/>
		</g>
	</g>
</g>
<g class="st2">
	<path class="st3" d="M102.77539,72.92969h1.85547v7.2959l-0.03125,3.71191c1.72754-1.72852,3.4873-3.07227,5.82324-3.07227
		c3.55176,0,5.18359,2.20801,5.18359,6.5918v10.91113H113.75V87.71289c0-3.55176-1.11914-5.18359-3.74316-5.18359
		c-1.9834,0-3.3916,1.02441-5.37598,3.07227v12.7666h-1.85547V72.92969z"/>
	<path class="st3" d="M120.21484,89.85645c0-5.53516,3.64844-8.99121,7.48828-8.99121c4.12695,0,6.5918,2.94434,6.5918,7.93555
		c0,0.48047-0.0332,0.92773-0.09668,1.34375h-12.09473c0.0957,4.16016,2.55957,7.07129,6.23926,7.07129
		c1.82324,0,3.26367-0.5752,4.54395-1.47168l0.70312,1.37598c-1.375,0.86426-2.97559,1.66406-5.43945,1.66406
		C123.76758,98.78418,120.21484,95.45605,120.21484,89.85645z M132.59766,88.67285c0-4.12793-1.88672-6.20801-4.86328-6.20801
		c-2.7832,0-5.2793,2.30469-5.63086,6.20801H132.59766z"/>
	<path class="st3" d="M136.79102,97.37598l9.82324-14.49512h-8.7666v-1.56738h11.16602v0.99219l-9.82227,14.46289h10.14258v1.59961
		h-12.54297V97.37598z"/>
	<path class="st3" d="M160.56641,81.31348h1.53516l0.22461,2.5918h0.06348c1.53613-1.69629,3.45605-3.04004,5.37598-3.04004
		c2.71973,0,4.0957,1.37598,4.70312,3.45605c1.91992-2.08008,3.77539-3.45605,5.75977-3.45605
		c3.42383,0,5.11914,2.20801,5.11914,6.5918v10.91113h-1.85547V87.71289c0-3.55176-1.18359-5.18359-3.67969-5.18359
		c-1.53516,0-3.10352,1.02441-4.92773,3.07227v12.7666h-1.85547V87.71289c0-3.55176-1.15234-5.18359-3.67969-5.18359
		c-1.50391,0-3.13574,1.02441-4.92773,3.07227v12.7666h-1.85547V81.31348z"/>
	<path class="st3" d="M188.08594,89.85645c0-5.69531,3.58398-8.99121,7.71094-8.99121c4.12793,0,7.71191,3.2959,7.71191,8.99121
		c0,5.66406-3.58398,8.92773-7.71191,8.92773C191.66992,98.78418,188.08594,95.52051,188.08594,89.85645z M201.58887,89.85645
		c0-4.35156-2.46387-7.35938-5.79199-7.35938c-3.32715,0-5.75977,3.00781-5.75977,7.35938s2.43262,7.32812,5.75977,7.32812
		C199.125,97.18457,201.58887,94.20801,201.58887,89.85645z"/>
	<path class="st3" d="M207.95703,75.74609c0-0.89648,0.64062-1.47266,1.50391-1.47266c0.83203,0,1.47266,0.57617,1.47266,1.47266
		c0,0.95996-0.64062,1.56738-1.47266,1.56738C208.59766,77.31348,207.95703,76.70605,207.95703,75.74609z M208.50195,81.31348
		h1.85547v17.05469h-1.85547V81.31348z"/>
</g>
<g class="st2">
	<path class="st3" d="M47.00049,83.49805c0-23.30176,12.90088-37.70215,31.40186-37.70215
		c8.60059,0,15.30078,4.2002,19.20117,8.7998l-3.40039,3.90039c-3.8999-4.40039-9.10059-7.30078-15.80078-7.30078
		c-15.40088,0-25.10156,12.40137-25.10156,32.10254c0,19.90137,9.50049,32.60156,24.80127,32.60156
		c7.40088,0,12.90088-3.09961,18.10107-8.7998l3.40039,3.7998c-5.6001,6.5-12.40088,10.40039-21.80127,10.40039
		C59.80127,121.2998,47.00049,106.79883,47.00049,83.49805z"/>
</g>
</svg>
