<?xml version="1.0" encoding="utf-8"?>
<!-- Generator: Adobe Illustrator 23.0.2, SVG Export Plug-In . SVG Version: 6.00 Build 0)  -->
<svg version="1.1" id="圖層_1" xmlns="http://www.w3.org/2000/svg" xmlns:xlink="http://www.w3.org/1999/xlink" x="0px" y="0px"
	 viewBox="0 0 185.11746 181.63887" style="enable-background:new 0 0 185.11746 181.63887;" xml:space="preserve">
<style type="text/css">
	.st0{clip-path:url(#SVGID_2_);}
	.st1{fill-rule:evenodd;clip-rule:evenodd;fill:#FFD643;}
	.st2{clip-path:url(#SVGID_4_);}
	.st3{fill:none;stroke:#FFA543;stroke-miterlimit:10;}
	.st4{fill:#FFD643;}
	.st5{fill:#2E2E2E;}
	.st6{enable-background:new    ;}
</style>
<g>
	<g>
		<defs>
			
				<rect id="SVGID_1_" x="3.56733" y="3.08453" transform="matrix(0.03093 -0.99952 0.99952 0.03093 -4.24393 177.7915)" width="171.99974" height="175.99973"/>
		</defs>
		<clipPath id="SVGID_2_">
			<use xlink:href="#SVGID_1_"  style="overflow:visible;"/>
		</clipPath>
		<g class="st0">
			<path class="st1" d="M13.97272,78.96877c4.74128-20.01975,7.65954-41.87456,25.15807-53.99622
				c18.50416-12.81816,44.63838-18.0701,66.45502-9.46574c20.09846,7.92719,22.93335,32.03259,34.58246,49.3152
				c11.36693,16.86359,33.73196,29.72247,31.82651,49.20686c-1.98354,20.29337-22.61282,33.04752-40.91451,43.74863
				c-18.31493,10.70872-38.75227,18.86259-60.51259,15.55807c-23.31379-3.53967-46.9725-14.24945-58.60521-33.64647
				C0.77605,121.03629,9.13282,99.40519,13.97272,78.96877z"/>
		</g>
	</g>
</g>
<g>
	<g>
		<defs>
			<rect id="SVGID_3_" x="1.56692" y="5.08383" width="176" height="172"/>
		</defs>
		<clipPath id="SVGID_4_">
			<use xlink:href="#SVGID_3_"  style="overflow:visible;"/>
		</clipPath>
		<g class="st2">
			<path class="st3" d="M16.95035,79.63288C20.87719,59.3098,22.88759,37.22,40.01456,24.29174
				C58.12581,10.6206,84.25324,4.22909,106.61819,11.94793c20.6036,7.11142,24.49014,31.2182,36.97319,48.09227
				c12.18063,16.46494,35.27997,28.4365,34.1897,48.10077c-1.13451,20.48063-21.39127,34.17791-39.38867,45.71267
				c-18.01041,11.54294-38.26984,20.60847-60.35195,18.21393c-23.65852-2.56474-47.97063-12.32123-60.52732-31.32111
				C5.43818,122.47552,12.94184,100.37894,16.95035,79.63288z"/>
		</g>
	</g>
</g>
<g>
	<rect x="5.60526" y="5.0002" class="st4" width="175.11768" height="171.63916"/>
	<path class="st5" d="M175.72269,9.99999v34.4785v84.34934v42.81105h-36.67204h-86.2134H10.60519v-46.07315V51.93479V9.99999h41.3
		h95.99979H175.72269 M185.72269-0.00001h-37.8177H51.90519h-51.3v51.9348v73.63094v56.07315h52.23205h86.2134h46.67204v-52.81105
		V44.47849V-0.00001L185.72269-0.00001z"/>
</g>
<g class="st6">
	<path class="st5" d="M133.16394,125.21896c-1.16699,17.74999-10.04199,26.62499-26.625,26.62499h-26.75
		c-7.29199,0-13.55273-2.61426-18.78125-7.84375c-5.22949-5.22852-7.84375-11.48926-7.84375-18.78124v-66.75
		c0-7.16602,2.57227-13.39551,7.71875-18.6875c5.14551-5.29102,11.44727-7.9375,18.90625-7.9375h26.75
		c16.75,0,25.625,8.875,26.625,26.625h-13.375c-1.04199-8.83301-5.45898-13.25-13.25-13.25h-13.375
		c-3.66699,0-6.8125,1.30273-9.4375,3.90625c-2.625,2.60449-3.9375,5.71875-3.9375,9.34375v66.75
		c0,3.58398,1.30176,6.68749,3.90625,9.31249c2.60352,2.625,5.75977,3.9375,9.46875,3.9375h13.375
		c7.83301,0,12.25-4.41602,13.25-13.24999H133.16394z"/>
</g>
</svg>
