<?xml version="1.0" encoding="utf-8"?>
<!-- Generator: Adobe Illustrator 23.0.2, SVG Export Plug-In . SVG Version: 6.00 Build 0)  -->
<svg version="1.1" id="圖層_1" xmlns="http://www.w3.org/2000/svg" xmlns:xlink="http://www.w3.org/1999/xlink" x="0px" y="0px"
	 viewBox="0 0 190.5 172" style="enable-background:new 0 0 190.5 172;" xml:space="preserve">
<style type="text/css">
	.st0{clip-path:url(#SVGID_2_);}
	.st1{fill-rule:evenodd;clip-rule:evenodd;fill:#FFD643;}
	.st2{clip-path:url(#SVGID_4_);}
	.st3{fill:none;stroke:#FFA543;stroke-miterlimit:10;}
	.st4{enable-background:new    ;}
	.st5{fill:#2E2E2E;}
</style>
<g>
	<g>
		<g>
			<g>
				<defs>
					
						<rect id="SVGID_1_" x="8.94986" y="-1.99898" transform="matrix(0.03093 -0.99952 0.99952 0.03093 6.0532 178.2449)" width="171.99948" height="175.99945"/>
				</defs>
				<clipPath id="SVGID_2_">
					<use xlink:href="#SVGID_1_"  style="overflow:visible;"/>
				</clipPath>
				<g class="st0">
					<path class="st1" d="M19.35526,73.88498c4.74128-20.01975,7.65954-41.87456,25.15807-53.99622
						C63.01749,7.0706,89.1517,1.81866,110.96835,10.42302c20.09846,7.92719,22.93336,32.03259,34.58247,49.3152
						c11.36693,16.86359,33.73196,29.72248,31.82651,49.20687c-1.98354,20.29336-22.61282,33.04751-40.91451,43.74862
						c-18.31493,10.70872-38.75227,18.86259-60.51259,15.55807c-23.31379-3.53967-46.9725-14.24945-58.60521-33.64647
						C6.15859,115.9525,14.51536,94.3214,19.35526,73.88498z"/>
				</g>
			</g>
		</g>
	</g>
	<g>
		<g>
			<g>
				<defs>
					<rect id="SVGID_3_" x="6.94946" y="0.00003" width="176" height="172"/>
				</defs>
				<clipPath id="SVGID_4_">
					<use xlink:href="#SVGID_3_"  style="overflow:visible;"/>
				</clipPath>
				<g class="st2">
					<path class="st3" d="M22.33289,74.54909c3.92684-20.32308,5.93724-42.41288,23.06421-55.34114
						C63.50835,5.5368,89.63578-0.85471,112.00073,6.86413c20.60361,7.11142,24.49014,31.2182,36.97319,48.09227
						c12.18063,16.46494,35.27997,28.4365,34.1897,48.10077c-1.13451,20.48064-21.39127,34.17792-39.38867,45.71268
						c-18.01041,11.54294-38.26984,20.60847-60.35195,18.21393c-23.65852-2.56474-47.97064-12.32123-60.52732-31.32111
						C10.82072,117.39172,18.32438,95.29514,22.33289,74.54909z"/>
				</g>
			</g>
		</g>
	</g>
</g>
<g class="st4">
	<path class="st5" d="M51.25049,114.23524v-24h5.3252v8c0.1084-0.90039,0.38525-1.57031,0.83105-2.0127
		c0.4458-0.44141,1.06055-0.66211,1.84375-0.66211h2.67529c1.45801,0,2.71045,0.52734,3.75635,1.58105
		c1.04541,1.05469,1.56836,2.31055,1.56836,3.76855v13.3252h-5.32471v-13.3252c0-0.7334-0.26465-1.3623-0.79395-1.8877
		c-0.5293-0.52441-1.15625-0.78711-1.88135-0.78711c-0.7334,0-1.3623,0.2627-1.88721,0.78711
		c-0.5249,0.52539-0.7876,1.1543-0.7876,1.8877v13.3252H51.25049z"/>
	<path class="st5" d="M86.17529,106.23524h-10.6748v2.6748c0,0.7168,0.26025,1.33789,0.78125,1.8623
		c0.52051,0.52539,1.15186,0.78809,1.89355,0.78809h2.67529c1.7666,0,2.6499-0.88379,2.6499-2.65039h2.6748
		c-0.4165,3.5498-2.19141,5.3252-5.32471,5.3252h-5.3501c-1.4585,0-2.71045-0.52246-3.75635-1.56836
		s-1.56885-2.29785-1.56885-3.75684v-8c0-1.47461,0.52539-2.73535,1.5752-3.78125s2.2998-1.56836,3.75-1.56836h5.3501
		c1.45801,0,2.71045,0.52734,3.75635,1.58105c1.04541,1.05469,1.56836,2.31055,1.56836,3.76855V106.23524z M75.50049,103.56044
		h5.3501v-2.65039c0-0.7334-0.26465-1.3623-0.79395-1.8877c-0.5293-0.52441-1.15625-0.78711-1.88135-0.78711
		c-0.7334,0-1.3623,0.2627-1.88721,0.78711c-0.5249,0.52539-0.7876,1.1543-0.7876,1.8877V103.56044z"/>
	<path class="st5" d="M89.1001,95.56044h15.99951v2.6748l-10.67432,13.3252h10.67432v2.6748H89.1001v-2.6748l10.67529-13.3252
		H89.1001V95.56044z"/>
	<path class="st5" d="M129.4375,114.23524h-5.3252v-13.3252c0-0.7334-0.26465-1.3623-0.79395-1.8877
		c-0.5293-0.52441-1.15625-0.78711-1.88086-0.78711c-0.73438,0-1.36328,0.2627-1.8877,0.78711
		c-0.52441,0.52539-0.78809,1.1543-0.78809,1.8877v13.3252h-5.32422v-18.6748h5.32422v2.6748
		c0.10938-0.90039,0.38574-1.57031,0.83203-2.0127c0.44531-0.44141,1.06055-0.66211,1.84375-0.66211h2.6748
		c1.80762,0,3.1416,0.62891,4,1.8877c0.41699-0.63379,0.95801-1.10645,1.625-1.41895s1.45801-0.46875,2.375-0.46875h2.64941
		c1.45898,0,2.71484,0.52246,3.76953,1.56836c1.05371,1.0459,1.58105,2.30664,1.58105,3.78125v13.3252h-5.35059v-13.3252
		c0-0.72461-0.26172-1.35156-0.78711-1.88086s-1.14648-0.79395-1.8623-0.79395c-0.7334,0-1.3623,0.2627-1.8877,0.78711
		c-0.52539,0.52539-0.78711,1.1543-0.78711,1.8877V114.23524z"/>
	<path class="st5" d="M148.3623,95.56044h5.35059c1.45703,0,2.70996,0.52734,3.75586,1.58105
		c1.04492,1.05469,1.56836,2.31055,1.56836,3.76855v8c0,1.44238-0.52344,2.68945-1.56836,3.74414
		c-1.0459,1.05371-2.29883,1.58105-3.75586,1.58105h-5.35059c-1.45801,0-2.70996-0.52246-3.75684-1.56836
		c-1.04492-1.0459-1.56836-2.29785-1.56836-3.75684v-8c0-1.47461,0.52539-2.73535,1.5752-3.78125
		S146.91211,95.56044,148.3623,95.56044z M148.3623,100.91005v8c0,0.7168,0.26074,1.33789,0.78125,1.8623
		c0.52051,0.52539,1.15137,0.78809,1.89355,0.78809s1.37305-0.2627,1.89453-0.78809c0.51953-0.52441,0.78125-1.14551,0.78125-1.8623
		v-8c0-0.7334-0.26562-1.3623-0.79492-1.8877c-0.5293-0.52441-1.15625-0.78711-1.88086-0.78711
		c-0.7334,0-1.3623,0.2627-1.88672,0.78711C148.625,99.54774,148.3623,100.17665,148.3623,100.91005z"/>
	<path class="st5" d="M161.96191,92.91005v-2.6748h5.3252v2.6748H161.96191z M161.96191,114.23524v-18.6748h5.3252v18.6748
		H161.96191z"/>
</g>
<g class="st4">
	<path class="st5" d="M76.35938,123.5956c-0.72949,11.09375-6.27637,16.64062-16.64062,16.64062H43
		c-4.55762,0-8.4707-1.63379-11.73828-4.90234c-3.26855-3.26758-4.90234-7.18066-4.90234-11.73828V81.87685
		c0-4.47852,1.60742-8.37207,4.82422-11.67969c3.21582-3.30664,7.1543-4.96094,11.81641-4.96094h16.71875
		c10.46875,0,16.01562,5.54688,16.64062,16.64062H68c-0.65137-5.52051-3.41211-8.28125-8.28125-8.28125h-8.35938
		c-2.29199,0-4.25781,0.81445-5.89844,2.44141C43.82031,77.66493,43,79.61122,43,81.87685v41.71875
		c0,2.24023,0.81348,4.17969,2.44141,5.82031c1.62695,1.64062,3.59961,2.46094,5.91797,2.46094h8.35938
		c4.89551,0,7.65625-2.75977,8.28125-8.28125H76.35938z"/>
</g>
</svg>
