<?xml version="1.0" encoding="utf-8"?>
<!-- Generator: Adobe Illustrator 23.0.2, SVG Export Plug-In . SVG Version: 6.00 Build 0)  -->
<svg version="1.1" id="圖層_1" xmlns="http://www.w3.org/2000/svg" xmlns:xlink="http://www.w3.org/1999/xlink" x="0px" y="0px"
	 viewBox="0 0 182.5 172" style="enable-background:new 0 0 182.5 172;" xml:space="preserve">
<style type="text/css">
	.st0{clip-path:url(#SVGID_2_);}
	.st1{fill-rule:evenodd;clip-rule:evenodd;fill:#FFD643;}
	.st2{fill-rule:evenodd;clip-rule:evenodd;fill:none;stroke:#FFD643;stroke-miterlimit:10;}
</style>
<g>
	<defs>
		<rect id="SVGID_1_" width="176" height="172"/>
	</defs>
	<clipPath id="SVGID_2_">
		<use xlink:href="#SVGID_1_"  style="overflow:visible;"/>
	</clipPath>
	<g class="st0">
		<path class="st1" d="M12.0673,76.2285c4.1199-20.1568,6.3609-42.0914,23.4762-54.7484
			C53.6424,8.09582,79.6017,2.03819,101.674,9.96375C122.008,17.2656,125.587,41.2718,137.765,58.1859
			c11.883,16.504,34.63499,28.6651,33.33301,48.1991c-1.35501,20.345-21.58,33.731-39.54201,44.993
			c-17.975,11.26999-38.1504,20.05199-60.0025,17.422c-23.4121-2.817-47.3907-12.79001-59.6177-31.81801
			C0.17788,118.684,7.86171,96.8048,12.0673,76.2285z"/>
	</g>
	<g class="st0">
		<path class="st2" d="M15.38343,74.54905c3.92684-20.32308,5.93724-42.41288,23.06421-55.34114
			C56.55889,5.53677,82.68632-0.85474,105.05127,6.8641c20.6036,7.11142,24.49016,31.2182,36.97319,48.09227
			c12.18063,16.46494,35.27997,28.4365,34.1897,48.10076c-1.13451,20.48064-21.39127,34.17792-39.38867,45.71268
			c-18.01041,11.54294-38.26984,20.60847-60.35195,18.21393c-23.65852-2.56474-47.97064-12.32123-60.52732-31.32111
			C3.87126,117.39167,11.37491,95.2951,15.38343,74.54905z"/>
	</g>
</g>
</svg>
